<svg fill="none" xmlns="http://www.w3.org/2000/svg" viewBox="0 0 29 29"><path d="M15.632 2.76a11.67 11.67 0 0 0-6.263 22.255 9.05 9.05 0 0 1 .19-2.675c.216-.979 1.512-6.374 1.512-6.374a4.364 4.364 0 0 1-.378-1.84c0-1.732 1-3.025 2.244-3.025a1.557 1.557 0 0 1 1.565 1.76c0 1.05-.674 2.639-1.026 4.13a1.802 1.802 0 0 0 1.837 2.243c2.214 0 3.699-2.836 3.699-6.184 0-2.567-1.7-4.49-4.834-4.49a5.537 5.537 0 0 0-5.752 5.593 3.454 3.454 0 0 0 .756 2.299.56.56 0 0 1 .19.646c-.054.215-.19.727-.243.915a.413.413 0 0 1-.595.296c-1.615-.646-2.376-2.423-2.376-4.452 0-3.321 2.782-7.298 8.347-7.298 4.428 0 7.373 3.24 7.373 6.705 0 4.56-2.54 7.99-6.293 7.99a3.338 3.338 0 0 1-2.863-1.454s-.674 2.702-.807 3.213a9.363 9.363 0 0 1-1.19 2.486c1.078.327 2.197.49 3.321.486a11.653 11.653 0 0 0 11.662-11.67A11.669 11.669 0 0 0 15.634 2.76l-.002-.001Z" fill="#fff"/></svg>