<svg fill="none" xmlns="http://www.w3.org/2000/svg" viewBox="0 0 29 29"><path d="M14.034 10.817a3.5 3.5 0 1 0 0 7 3.5 3.5 0 0 0 0-7Zm0-2.334a5.833 5.833 0 1 1 0 11.666 5.833 5.833 0 0 1 0-11.666Zm7.583-.291a1.459 1.459 0 1 1-2.917 0 1.459 1.459 0 0 1 2.917 0Zm-7.583-3.209c-2.886 0-3.358.008-4.7.068-.915.043-1.529.166-2.098.387-.507.196-.872.43-1.26.82a3.372 3.372 0 0 0-.822 1.26c-.221.572-.344 1.185-.386 2.098-.06 1.288-.067 1.738-.067 4.7 0 2.887.008 3.358.067 4.701.043.914.166 1.528.386 2.097.199.507.432.872.82 1.26.393.392.758.626 1.26.82.576.223 1.19.346 2.1.388 1.287.06 1.738.068 4.7.068 2.886 0 3.357-.008 4.7-.068.913-.043 1.527-.165 2.097-.386a3.41 3.41 0 0 0 1.26-.819c.393-.393.627-.758.821-1.26.222-.575.346-1.19.387-2.1.061-1.288.068-1.738.068-4.7 0-2.887-.008-3.358-.068-4.7-.043-.913-.165-1.53-.387-2.099a3.396 3.396 0 0 0-.82-1.26 3.364 3.364 0 0 0-1.26-.82c-.572-.223-1.185-.345-2.098-.387-1.288-.06-1.738-.068-4.7-.068Zm0-2.333c3.17 0 3.565.012 4.809.07 1.242.058 2.088.253 2.832.542.77.297 1.42.698 2.068 1.346a5.727 5.727 0 0 1 1.345 2.067c.288.743.484 1.59.543 2.833.054 1.243.07 1.639.07 4.809s-.012 3.565-.07 4.809c-.059 1.242-.255 2.088-.543 2.832a5.697 5.697 0 0 1-1.345 2.068 5.735 5.735 0 0 1-2.067 1.345c-.744.288-1.59.484-2.833.542-1.244.055-1.64.07-4.81.07-3.169 0-3.564-.011-4.808-.07-1.243-.058-2.088-.254-2.833-.542a5.705 5.705 0 0 1-2.067-1.345 5.72 5.72 0 0 1-1.345-2.068c-.29-.743-.484-1.59-.543-2.832-.055-1.244-.07-1.64-.07-4.81s.012-3.565.07-4.808c.059-1.244.253-2.089.543-2.833a5.693 5.693 0 0 1 1.345-2.067 5.713 5.713 0 0 1 2.067-1.346c.745-.289 1.59-.484 2.833-.542 1.244-.055 1.639-.07 4.809-.07Z" fill="#fff"/></svg>